<?xml version="1.0" standalone="no"?>
<!DOCTYPE svg PUBLIC "-//W3C//DTD SVG 20010904//EN"
 "http://www.w3.org/TR/2001/REC-SVG-20010904/DTD/svg10.dtd">
<svg version="1.0" xmlns="http://www.w3.org/2000/svg"
 width="515.000000pt" height="485.000000pt" viewBox="0 0 515.000000 485.000000"
 preserveAspectRatio="xMidYMid meet">

<g transform="translate(0.000000,485.000000) scale(0.100000,-0.100000)"
fill="#000000" stroke="none">
<path d="M3300 4425 c-6 -15 -23 -32 -40 -38 -38 -14 -38 -27 -1 -27 44 0 91
66 61 85 -6 3 -15 -6 -20 -20z"/>
<path d="M3227 4343 c-14 -13 -6 -64 12 -82 22 -22 82 -37 108 -27 14 6 15 9
4 15 -10 6 -9 10 4 15 23 8 9 26 -21 26 -25 0 -33 -15 -11 -23 6 -3 0 -6 -15
-6 -35 -1 -58 23 -58 60 0 28 -9 37 -23 22z"/>
<path d="M3200 4198 c0 -4 9 -8 20 -8 11 0 20 4 20 9 0 6 -9 9 -20 8 -11 -1
-20 -5 -20 -9z"/>
<path d="M3280 4190 c0 -5 5 -10 11 -10 5 0 7 5 4 10 -3 6 -8 10 -11 10 -2 0
-4 -4 -4 -10z"/>
<path d="M3310 4190 c0 -5 9 -10 21 -10 11 0 17 5 14 10 -3 6 -13 10 -21 10
-8 0 -14 -4 -14 -10z"/>
<path d="M3361 4184 c0 -11 3 -14 6 -6 3 7 2 16 -1 19 -3 4 -6 -2 -5 -13z"/>
<path d="M2780 4033 c-22 -16 -24 -23 -19 -58 3 -22 7 -30 8 -17 0 12 6 22 12
22 6 0 7 -8 2 -22 -4 -13 -7 -38 -6 -55 5 -68 4 -79 -2 -125 -6 -34 -3 -59 9
-88 15 -39 15 -40 -5 -40 -43 0 -57 -16 -48 -57 15 -74 42 -136 61 -141 10 -2
18 -11 18 -19 0 -8 4 -12 9 -8 6 3 6 17 1 34 -4 15 -6 40 -3 54 3 14 -2 40
-11 58 -20 40 -20 45 -2 29 12 -9 17 -5 25 27 6 21 13 58 17 83 13 93 64 216
94 225 12 4 37 21 56 37 57 50 183 62 349 33 103 -18 149 -45 142 -81 -2 -13
0 -24 4 -24 5 0 9 -6 9 -14 0 -8 16 -20 35 -27 36 -14 50 -35 15 -24 -23 7
-28 -13 -5 -21 8 -4 15 -15 15 -25 0 -13 5 -17 18 -13 13 5 14 4 3 -4 -7 -5
-10 -15 -7 -21 9 -14 3 -14 -29 1 -14 6 -25 16 -25 21 0 10 -125 1 -144 -10
-5 -4 -24 -8 -41 -10 -38 -4 -55 -27 -55 -74 0 -40 26 -69 62 -69 9 0 22 -9
28 -20 6 -11 21 -20 33 -20 22 1 22 1 -2 14 l-24 13 24 6 c13 3 50 4 82 1 43
-4 59 -2 63 9 3 9 14 12 30 9 18 -3 24 0 25 14 1 23 -2 72 -6 95 -5 26 44 20
51 -6 16 -69 -17 -430 -38 -409 -4 3 -10 -5 -14 -20 -4 -17 -13 -26 -26 -26
-15 0 -18 -4 -13 -17 5 -15 4 -16 -6 -5 -7 6 -17 12 -23 12 -5 0 -7 -3 -3 -6
3 -4 -1 -13 -9 -22 -15 -15 -15 -33 0 -77 7 -18 6 -18 -4 -2 -7 11 -19 15 -33
12 -20 -5 -22 -2 -23 43 -2 54 -27 112 -49 112 -29 0 -66 24 -71 47 -6 24 -11
26 -86 28 -31 0 -54 7 -68 20 -16 15 -25 17 -38 9 -23 -14 -42 -7 -42 16 0 16
-10 13 -72 -23 -92 -52 -108 -68 -118 -109 l-7 -33 -7 30 c-13 51 -18 61 -23
48 -3 -7 -9 -13 -14 -13 -4 0 -6 7 -3 15 4 10 0 15 -11 15 -14 0 -16 -6 -10
-42 4 -24 12 -46 17 -49 5 -4 9 -17 7 -30 -4 -34 10 -89 31 -124 11 -19 20
-61 24 -114 3 -51 11 -88 18 -93 10 -6 10 -8 -1 -8 -9 0 -11 -7 -8 -23 4 -12
2 -29 -3 -37 -7 -11 -10 -8 -10 15 l-1 30 -17 -30 c-21 -39 -62 -154 -62 -176
0 -10 -6 -24 -13 -31 -7 -7 -24 -47 -38 -88 -34 -106 -32 -188 11 -305 17 -49
36 -117 40 -150 4 -33 18 -105 31 -160 12 -55 23 -116 23 -135 0 -19 -17 -87
-38 -150 -55 -164 -67 -208 -70 -265 -3 -63 -12 -81 -32 -64 -8 6 -14 17 -14
24 0 6 -8 19 -18 28 -27 25 -94 21 -152 -8 -56 -29 -85 -32 -94 -10 -7 19 -26
20 -26 0 0 -12 -28 -35 -44 -35 -11 0 -36 106 -36 151 0 37 -4 51 -19 58 -28
16 -33 119 -10 233 10 50 17 94 15 96 -2 1 -9 -21 -15 -50 -19 -87 -44 -168
-51 -168 -4 0 -10 83 -14 184 -6 171 -8 187 -33 236 -22 44 -27 71 -31 154 -3
87 -1 108 17 150 12 27 20 51 18 53 -7 7 -25 -22 -46 -72 -26 -64 -27 -46 -2
25 11 30 17 58 15 62 -11 18 -26 6 -44 -34 -10 -24 -19 -36 -19 -28 -1 8 8 30
19 48 14 22 17 38 11 50 -57 116 -64 122 -133 122 -68 0 -74 -12 -33 -66 31
-40 31 -43 0 -79 -14 -17 -45 -60 -69 -97 -25 -37 -62 -88 -83 -113 -32 -39
-39 -43 -49 -30 -6 8 -19 15 -28 15 -10 0 -14 5 -10 12 4 6 3 9 -2 6 -5 -3
-19 -2 -30 2 -17 7 -22 17 -22 44 0 22 5 36 12 36 8 0 11 11 8 30 -2 17 -10
30 -18 30 -8 0 -14 4 -14 9 0 14 51 52 61 45 5 -3 9 0 9 5 0 6 6 11 13 11 8 0
34 30 59 68 79 117 90 140 86 177 -2 18 0 31 4 29 4 -3 8 2 8 10 0 18 -16 21
-25 6 -4 -6 -10 -8 -15 -5 -12 7 -22 -28 -14 -49 3 -9 1 -16 -6 -16 -21 0 -45
33 -42 59 2 23 1 24 -8 6 -5 -11 -14 -40 -20 -63 -12 -47 -80 -127 -88 -104
-2 8 -8 9 -15 4 -17 -13 -57 -22 -57 -12 0 12 -26 19 -49 13 -11 -3 -18 -10
-15 -15 4 -6 -3 -5 -15 1 -32 17 -25 43 19 74 44 31 45 59 1 56 -41 -3 -71 0
-71 9 0 10 123 52 153 52 32 0 87 20 87 31 0 9 -17 14 -35 8 -5 -1 -38 -3 -71
-5 -34 -1 -71 -7 -82 -13 -14 -7 -23 -8 -27 -1 -3 5 2 10 13 10 10 0 27 9 37
20 10 11 15 20 11 20 -3 0 1 14 9 30 14 27 14 31 0 36 -8 4 -27 3 -43 -1 -53
-15 -62 -15 -83 6 -16 16 -19 28 -14 47 4 15 9 59 11 98 l5 71 -40 26 c-23 15
-41 31 -41 37 0 5 21 12 48 15 26 3 62 13 81 21 18 8 53 17 77 21 37 5 44 3
44 -11 0 -18 -37 -36 -74 -36 -51 0 -68 -78 -25 -111 39 -29 99 -42 134 -28
l30 12 -25 6 c-29 8 -19 16 31 25 47 8 71 34 46 47 -19 11 -23 39 -6 39 6 0 8
7 5 16 -9 22 11 44 40 44 13 0 24 6 24 12 0 7 11 1 25 -12 31 -31 57 -156 48
-230 -4 -31 -2 -50 4 -50 6 0 13 33 15 74 3 46 11 85 21 100 22 33 21 42 -5
79 -14 19 -21 42 -19 60 1 15 -3 34 -9 42 -9 11 -7 18 9 34 l20 20 11 -36 c9
-27 15 -32 24 -23 8 9 8 14 -1 17 -7 3 -13 15 -13 27 0 21 -8 23 -113 39 -146
22 -227 21 -362 -3 -198 -36 -308 -65 -343 -93 -17 -13 -8 -88 20 -171 11 -32
22 -84 23 -115 2 -31 10 -69 19 -86 9 -16 16 -37 16 -46 0 -8 7 -24 15 -35 8
-10 15 -29 15 -41 0 -12 4 -24 9 -28 5 -3 19 -35 31 -71 12 -36 37 -85 55
-109 19 -24 40 -65 48 -92 14 -47 14 -49 -14 -93 -42 -67 -42 -74 36 -325 24
-77 51 -169 60 -205 10 -36 25 -90 35 -120 10 -30 26 -88 35 -127 10 -40 21
-70 26 -67 5 3 7 15 5 27 -1 12 -1 16 1 9 7 -18 21 -15 34 10 13 23 23 38 52
69 17 18 27 20 95 14 130 -10 138 -12 168 -53 16 -20 31 -38 35 -40 92 -40
257 -180 242 -206 -19 -34 -67 -96 -74 -96 -4 0 -6 17 -4 38 3 20 2 29 -1 20
-3 -10 -10 -18 -15 -18 -11 0 -159 150 -159 161 0 25 -168 85 -205 73 -5 -1
-38 -5 -73 -9 -81 -7 -103 -16 -146 -59 -40 -41 -92 -124 -82 -134 4 -3 21 0
39 7 56 23 120 41 125 36 8 -7 -85 -44 -129 -51 l-39 -7 0 -68 c0 -37 -7 -94
-15 -126 -20 -78 -19 -132 5 -193 11 -28 15 -48 9 -44 -6 3 -28 8 -48 11 -20
2 -56 10 -81 17 -25 8 -62 17 -83 20 -20 4 -43 15 -49 25 -6 11 -18 17 -25 14
-15 -6 -17 15 -3 52 l10 25 -56 -31 c-51 -28 -55 -29 -49 -10 5 16 2 21 -12
21 -11 0 -14 3 -7 8 6 4 14 21 17 39 4 18 18 51 32 74 24 37 30 41 58 36 18
-2 47 -11 65 -18 24 -10 37 -11 50 -2 20 12 20 5 -12 198 -25 145 -25 147 -20
60 3 -49 9 -110 14 -135 5 -25 5 -46 1 -48 -5 -1 -6 -15 -3 -29 5 -26 3 -25
-29 12 -19 22 -40 45 -47 51 -14 10 -26 55 -41 144 -4 25 -17 59 -30 77 -19
25 -23 39 -18 69 6 35 -8 64 -31 64 -31 0 -79 153 -102 327 -17 121 -28 131
-81 72 -52 -57 -108 -141 -139 -208 -20 -43 -22 -56 -12 -71 10 -16 9 -18 -3
-14 -8 4 -15 17 -15 31 0 13 -4 22 -10 18 -5 -3 -7 -12 -3 -20 3 -9 -1 -15 -9
-15 -10 0 -20 -24 -32 -77 -10 -43 -21 -97 -27 -120 -5 -23 -9 -70 -9 -105 0
-71 -21 -193 -45 -259 -9 -24 -27 -75 -41 -114 -14 -38 -32 -97 -41 -130 -28
-111 -27 -134 7 -220 20 -50 30 -89 26 -106 -5 -25 22 -69 42 -69 5 0 13 -15
20 -34 23 -63 40 -70 168 -72 63 -1 118 -4 121 -7 3 -3 0 -29 -6 -57 -6 -28
-11 -70 -11 -93 0 -38 4 -44 35 -59 38 -19 65 -15 65 11 0 21 57 141 67 142 4
0 35 2 68 4 153 10 240 17 247 21 4 2 26 1 49 -2 l41 -7 -6 -71 c-4 -39 -10
-88 -13 -108 -5 -33 -3 -38 15 -38 18 0 21 10 32 88 21 146 26 160 63 167 47
9 64 8 147 -10 172 -37 190 -39 221 -28 46 18 56 8 64 -58 4 -34 10 -73 14
-87 7 -26 8 -26 15 11 8 44 22 52 72 43 28 -6 42 -17 66 -54 18 -27 28 -38 25
-24 -3 12 -1 20 3 17 13 -8 23 17 55 133 16 56 32 102 37 102 5 0 7 -8 4 -17
-18 -61 -18 -71 2 -82 29 -15 30 -15 37 21 9 46 26 88 36 88 4 0 -1 -32 -12
-72 -11 -39 -16 -75 -12 -79 10 -10 120 -49 137 -49 6 0 12 23 14 53 2 28 7
56 11 60 5 5 32 -16 60 -47 48 -49 56 -54 85 -49 19 3 36 1 40 -5 4 -6 3 -36
-2 -66 l-9 -56 27 0 c25 0 28 4 34 50 4 27 10 50 14 50 4 0 21 -7 37 -16 17
-8 41 -17 55 -19 31 -4 100 -32 100 -40 0 -3 -6 -3 -12 1 -10 5 -10 3 0 -7 11
-12 98 -15 491 -17 l478 -4 6 24 c4 12 7 35 7 49 0 23 48 83 64 80 19 -3 26 0
20 10 -4 8 0 9 15 4 17 -5 23 -1 32 22 30 75 40 77 67 16 l22 -48 -2 62 c-2
44 -6 63 -15 63 -15 0 -17 16 -3 25 6 4 37 43 70 88 33 45 64 87 69 93 5 6 16
24 24 40 8 16 38 53 66 82 28 29 77 88 109 130 87 116 134 203 235 435 22 49
23 272 2 330 -11 34 -11 44 2 75 30 72 53 168 53 222 -1 99 -41 156 -200 285
-47 38 -101 83 -120 101 -48 43 -106 50 -175 21 -138 -59 -306 -199 -390 -327
-13 -19 -37 -51 -54 -70 -18 -19 -44 -60 -60 -90 -40 -79 -65 -117 -75 -116
-5 1 -19 -17 -31 -38 -12 -22 -31 -43 -41 -46 -10 -4 -28 -24 -40 -46 -12 -21
-30 -44 -41 -49 -11 -6 -18 -15 -16 -21 2 -6 -8 -33 -22 -59 -14 -26 -25 -53
-25 -60 0 -7 -7 -26 -16 -43 -8 -17 -16 -40 -17 -51 0 -11 -5 -17 -9 -15 -4 3
-10 -7 -14 -21 -3 -14 -14 -29 -23 -35 -13 -7 -10 -10 17 -16 25 -5 32 -11 27
-23 -4 -9 -12 -28 -17 -43 -5 -16 -16 -28 -23 -28 -7 0 -28 -19 -46 -42 -18
-24 -38 -47 -44 -53 -6 -5 -19 -27 -28 -47 -14 -30 -24 -38 -55 -44 -44 -8
-70 -20 -97 -45 -40 -36 -95 -3 -113 67 -21 83 9 254 45 254 8 0 13 6 10 13
-2 7 -18 11 -40 9 -22 -2 -46 3 -59 12 -29 21 -59 21 -52 1 4 -8 1 -15 -5 -15
-6 0 -11 10 -11 23 1 12 0 43 0 70 0 28 11 84 29 135 16 48 52 161 81 252 28
91 59 181 68 200 29 60 176 253 238 311 32 30 134 128 225 216 92 88 196 181
232 207 74 55 73 39 11 191 -30 75 -42 93 -70 107 -21 11 -36 14 -40 7 -3 -6
3 -13 14 -16 32 -8 37 -50 10 -89 -13 -19 -26 -34 -30 -34 -4 0 -25 -26 -47
-58 -22 -31 -50 -64 -62 -72 -19 -14 -127 -97 -156 -120 -22 -18 -37 -11 -19
9 9 10 32 49 51 87 19 38 35 65 35 61 0 -5 7 -2 15 7 8 8 15 18 15 23 0 5 20
29 45 53 42 41 62 72 113 175 34 69 57 175 67 307 7 90 9 98 27 80 30 -30 32
7 3 51 -21 32 -10 75 21 87 13 5 24 15 24 22 0 8 13 29 28 48 33 41 82 124 82
139 0 6 -7 8 -15 4 -13 -4 -15 2 -13 37 3 42 2 43 -47 69 -56 29 -132 55 -250
84 -69 17 -125 20 -395 24 -291 4 -317 3 -340 -14z m980 -165 c0 -19 -2 -20
-10 -8 -13 19 -13 30 0 30 6 0 10 -10 10 -22z m-10 -100 c0 -16 -3 -19 -11
-11 -6 6 -8 16 -5 22 11 17 16 13 16 -11z m-250 -88 c0 -5 -4 -10 -10 -10 -5
0 -10 5 -10 10 0 6 5 10 10 10 6 0 10 -4 10 -10z m-426 -289 c3 -5 -5 -16 -19
-25 -23 -15 -25 -15 -25 1 0 11 -3 14 -8 7 -8 -11 -42 -27 -42 -19 0 8 64 45
77 45 6 0 14 -4 17 -9z m272 -116 c-16 -17 -36 -20 -36 -6 0 8 17 16 43 20 5
0 2 -6 -7 -14z m60 -77 c12 -13 18 -112 6 -104 -6 3 -14 -3 -17 -15 -9 -28
-67 -80 -82 -74 -7 2 -13 0 -13 -5 0 -9 -98 -5 -107 4 -11 11 9 47 24 42 16
-7 83 50 83 70 0 18 -59 35 -136 40 -63 4 -94 15 -94 34 0 5 8 11 18 13 27 8
309 3 318 -5z m-368 -43 c-3 -3 -9 2 -12 12 -6 14 -5 15 5 6 7 -7 10 -15 7
-18z m145 -125 c-6 -22 -18 -26 -28 -10 -8 13 14 42 25 35 5 -3 6 -14 3 -25z
m-1946 -27 c-3 -10 -5 -4 -5 12 0 17 2 24 5 18 2 -7 2 -21 0 -30z m27 -97 c7
-36 9 -63 5 -60 -8 4 -29 93 -29 121 0 33 13 2 24 -61z m156 40 c0 -13 -7 -40
-15 -60 l-16 -37 -29 21 c-17 12 -30 24 -30 28 0 4 12 22 27 40 32 39 63 43
63 8z m1393 -376 c-5 -20 -23 -38 -23 -23 1 22 13 52 20 48 5 -3 6 -14 3 -25z
m295 -74 c-2 -1 -11 -7 -20 -14 -14 -11 -16 -10 -11 7 3 12 11 17 19 14 8 -3
14 -6 12 -7z m1177 -86 c3 -5 -2 -10 -12 -10 -10 0 -29 -3 -43 -6 l-25 -6 25
15 c30 18 47 20 55 7z m89 -27 c56 -39 163 -130 204 -173 41 -43 72 -115 72
-168 0 -45 -31 -186 -44 -199 -3 -3 -16 20 -30 51 -23 52 -24 61 -14 118 9 51
8 70 -6 115 -19 60 -71 125 -122 151 -17 9 -53 43 -78 74 -66 81 -63 87 18 31z
m-236 -33 c-49 -30 -104 -47 -92 -28 8 13 103 57 124 57 8 0 -6 -13 -32 -29z
m-1130 -2 c7 -7 12 -19 11 -27 0 -10 -4 -7 -9 6 -9 23 -40 23 -40 0 0 -6 -3
-7 -6 -4 -7 7 14 37 25 37 4 0 12 -5 19 -12z m-914 -52 c-5 -21 -9 -24 -20
-15 -12 10 -12 15 2 30 21 24 27 19 18 -15z m-288 -87 c3 -6 0 -17 -7 -25 -12
-11 -14 -9 -14 11 0 26 9 32 21 14z m-116 -64 l33 -34 -31 -28 c-17 -15 -36
-40 -41 -55 -16 -44 -62 -17 -106 62 -8 13 -6 13 7 2 9 -7 28 -15 43 -18 23
-4 26 -1 25 18 -1 13 -2 38 -1 56 1 43 27 42 71 -3z m244 -27 c-12 -23 -14
-44 -10 -79 6 -47 6 -49 -35 -86 -23 -21 -48 -52 -56 -70 -7 -18 -22 -37 -34
-43 -18 -10 -17 -7 7 32 15 23 45 59 67 79 26 25 37 42 31 50 -12 21 -6 67 16
110 11 21 23 39 25 39 3 0 -2 -14 -11 -32z m-317 -164 c-3 -3 -12 -4 -19 -1
-8 3 -5 6 6 6 11 1 17 -2 13 -5z m-7 -39 c0 -8 -2 -15 -4 -15 -2 0 -6 7 -10
15 -3 8 -1 15 4 15 6 0 10 -7 10 -15z m-86 -55 c5 -17 4 -20 -2 -10 -5 8 -13
26 -16 40 -5 17 -4 20 2 10 5 -8 13 -26 16 -40z m235 -100 c10 -29 9 -30 -16
-26 -34 7 -35 9 -17 34 19 28 20 28 33 -8z m-189 -50 c0 -13 -1 -13 -10 0 -5
8 -10 22 -10 30 0 13 1 13 10 0 5 -8 10 -22 10 -30z m2080 -263 c58 -24 114
-49 125 -55 11 -7 65 -32 120 -57 54 -25 102 -49 105 -53 3 -4 38 -29 78 -56
82 -55 152 -134 177 -199 l17 -44 -31 -55 c-34 -59 -38 -73 -18 -62 7 5 6 1
-3 -10 -11 -14 -15 -15 -18 -5 -3 8 -12 32 -22 54 -10 22 -21 51 -25 65 -11
37 -53 79 -110 107 -27 14 -68 38 -90 52 -22 15 -53 33 -70 41 -16 8 -47 27
-68 42 -21 15 -55 32 -75 39 -20 6 -87 36 -149 65 -114 55 -140 62 -174 44
-34 -19 -21 7 37 69 31 34 64 61 73 61 9 0 64 -19 121 -43z m-1326 -96 l30
-20 -25 -5 c-13 -2 -44 -7 -69 -10 l-45 -6 33 30 c38 35 39 35 76 11z m-1144
-72 c0 -6 -4 -7 -10 -4 -5 3 -10 11 -10 16 0 6 5 7 10 4 6 -3 10 -11 10 -16z
m903 7 l39 -13 -31 -13 c-37 -15 -61 -8 -61 20 0 24 3 24 53 6z m-1043 -300
c118 -33 146 -47 215 -105 109 -91 165 -157 165 -191 0 -15 -87 -39 -145 -39
-33 -1 -99 -3 -147 -5 -49 -1 -88 0 -88 3 0 9 -49 12 -87 5 -19 -3 -33 -11
-33 -19 0 -21 -30 -26 -121 -21 -46 3 -88 1 -94 -4 -7 -5 -27 2 -53 18 -53 33
-52 57 2 92 36 24 47 25 175 25 86 1 150 5 174 14 39 13 39 13 15 27 -12 7
-30 16 -38 20 -8 4 -18 12 -22 18 -4 7 -44 11 -95 11 -80 0 -88 2 -91 20 -5
34 82 122 136 139 26 8 47 15 47 15 0 1 38 -10 85 -23z m443 -131 c23 -24 60
-95 51 -95 -10 0 -64 58 -64 69 0 5 -9 11 -20 14 -25 6 -27 39 -2 35 9 -2 25
-12 35 -23z"/>
<path d="M3021 3917 l-23 -26 63 2 c35 0 73 -2 84 -6 15 -6 24 -2 33 14 7 11
11 24 7 27 -3 4 -36 8 -73 10 -61 4 -69 2 -91 -21z"/>
<path d="M3200 3925 c0 -16 16 -20 24 -6 3 5 -1 11 -9 15 -9 3 -15 0 -15 -9z"/>
<path d="M2963 3786 c-54 -30 -93 -99 -93 -162 0 -23 31 -41 50 -29 6 4 17 2
24 -4 18 -15 55 -16 138 -4 l67 9 4 -25 3 -26 12 28 c16 38 16 145 0 160 -20
19 -151 68 -174 66 -5 -1 -19 -7 -31 -13z m112 -177 c-28 -11 -107 -11 -101 0
4 5 32 9 64 9 38 -1 50 -3 37 -9z"/>
<path d="M1423 3659 c-6 -16 -17 -29 -25 -29 -12 0 -15 -22 -10 -67 5 -38 102
-40 102 -2 0 23 -25 25 -38 4 -11 -21 -41 -9 -48 20 -4 16 2 30 20 48 27 27
32 42 18 51 -4 3 -13 -8 -19 -25z"/>
<path d="M3750 3597 c-8 -7 -20 -19 -27 -28 -10 -13 -7 -15 22 -16 32 -1 35 1
35 28 0 31 -7 35 -30 16z"/>
<path d="M1389 3499 c-10 -6 -7 -9 14 -9 29 0 35 5 14 13 -8 3 -20 1 -28 -4z"/>
<path d="M1468 3503 c7 -3 16 -2 19 1 4 3 -2 6 -13 5 -11 0 -14 -3 -6 -6z"/>
<path d="M3350 3411 c0 -5 8 -11 18 -15 9 -3 24 -9 32 -12 8 -3 4 4 -10 15
-27 22 -40 26 -40 12z"/>
<path d="M2803 3391 c-9 -15 -9 -22 0 -30 10 -7 13 -3 15 20 3 34 1 35 -15 10z"/>
<path d="M1091 3214 c0 -11 3 -14 6 -6 3 7 2 16 -1 19 -3 4 -6 -2 -5 -13z"/>
<path d="M2000 3149 c-7 -11 -7 -18 -1 -17 5 2 17 -6 25 -17 15 -19 15 -19 16
11 0 38 -25 52 -40 23z"/>
<path d="M1957 3084 c-9 -9 15 -54 29 -54 21 0 24 15 8 38 -15 22 -26 27 -37
16z"/>
<path d="M3679 2410 c-30 -94 -33 -111 -20 -90 15 25 52 141 48 153 -2 7 -14
-22 -28 -63z"/>
<path d="M3592 2428 c-10 -30 -10 -31 3 -14 13 17 21 46 12 46 -1 0 -8 -15
-15 -32z"/>
<path d="M3615 2370 c-4 -12 -5 -24 -2 -27 3 -2 8 5 12 17 4 12 5 24 2 27 -3
2 -8 -5 -12 -17z"/>
<path d="M3591 2264 c-6 -37 -10 -68 -8 -71 3 -2 10 26 17 62 7 36 10 68 8 70
-3 3 -10 -25 -17 -61z"/>
<path d="M3592 2155 c-14 -30 -16 -89 -3 -65 8 15 22 90 17 90 -2 0 -8 -11
-14 -25z"/>
<path d="M930 2150 c-13 -8 -12 -10 3 -10 9 0 17 5 17 10 0 12 -1 12 -20 0z"/>
<path d="M1241 1964 c0 -11 3 -14 6 -6 3 7 2 16 -1 19 -3 4 -6 -2 -5 -13z"/>
<path d="M1120 1938 c0 -13 -3 -34 -5 -48 -5 -22 -3 -21 9 5 18 35 20 65 6 65
-5 0 -10 -10 -10 -22z"/>
<path d="M1655 1600 c-4 -6 7 -10 27 -10 25 0 29 3 18 10 -19 13 -37 13 -45 0z"/>
<path d="M1542 370 c0 -14 2 -19 5 -12 2 6 2 18 0 25 -3 6 -5 1 -5 -13z"/>
<path d="M4209 359 c-18 -9 -65 -116 -56 -125 7 -8 47 56 47 75 0 8 7 23 17
33 19 21 15 30 -8 17z"/>
</g>
</svg>
